<svg height="28" width="91" xmlns="http://www.w3.org/2000/svg"><g fill="none"><path d="m33.8245118 14.8644172c-3.024.640086-4.1533333-2.8276989-3.8284731-4.4550107 0 0 .3630968-3.51505381 2.8204731-3.71677424 1.9521721-.17432258 3.3889033 1.93290322 3.5346237 3.14713978.0972473.79002146.5100215 4.37101076-2.5266237 5.02464516zm5.6297463-6.02695483c-1.6700646 0-3.0315269-1.90972043-3.0315269-4.26744086 0-2.36494624 1.3614623-4.26894624 3.0315269-4.26894624 1.6736774 0 3.0327311 1.904 3.0327311 4.26894624 0 2.35772043-1.3590537 4.26744086-3.0327311 4.26744086zm7.2159311.27816344c-2.2330752-.27819355-2.7418924-2.29178495-2.5305376-4.29664516.1902796-1.64025807 2.1689462-4.16146237 3.7577204-3.78993549 1.5890753.35195699 3.0258065 2.42696774 2.7394839 4.21896774-.2784946 1.79350538-1.727871 4.16266667-3.9666667 3.86761291zm8.8752775 3.01207739c0 .8631828.3624946 4.5293764-2.9544516 4.599828-3.3307957.0656344-3.4659785-2.2255484-3.4659785-3.8769463 0-1.7254623.3612903-4.15965587 3.0249032-4.15965587 2.6813763 0 3.3955269 2.58232257 3.3955269 3.43677417zm-3.3955871 7.5296817s2.6064086 2.0181076.9486881 5.8845162c-1.6652473 3.8718279-7.7289032 1.8576344-7.7289032 1.8576344s-2.232172-.6996989-4.840086-.1255484c-2.5835269.5596989-4.8283441.3375054-4.8283441.3375054s-3.0366452.0791828-3.8986236-3.7209893c-.8670968-3.8007742 3.0246021-5.88 3.3148387-6.2325591.295957-.3579785 2.3197849-1.7311828 3.6141075-3.876043 1.2991398-2.1532903 5.1965591-3.87634411 7.9387527.3567742 2.024129 2.8710537 5.4795699 5.5187096 5.4795699 5.5187096zm-3.0249033 5.7384947v-6.6564731h-1.9554838v5.0101935h-1.8702796s-.6063656-.0945376-.7132473-.5657204v-4.4715699l-1.844086.0270968v4.968043s.0852043 1.2458494 1.844086 1.6884301zm-7.3486451.0237849v-9.4275699l-1.7793549-.0219785v2.5483011h-2.1018064s-2.1030108.1607742-2.8367312 2.5266237c-.2610322 1.5719139.2273118 2.496215.3083011 2.7045591.0978494.1926882.7644301 1.3397849 2.4703226 1.6700645zm-4.7359742-4.3179312c-.0815914.2574194-.2763871.8972043-.1056774 1.4575054.336 1.2696344 1.440043 1.3211183 1.440043 1.3211183h1.5884731v-3.8459355h-1.6956559c-.7710538.2330323-1.1341506.8089893-1.2271828 1.0673118z" fill="#2932e1"/><g fill="#e10602"><path d="m25.7940215 15.6538366v-2.647957h3.0405591v2.647957zm0 11.5715268v-10.4153978h3.0405591v10.4153978zm-4.9435355-10.4051311c3.0833118.4233118 3.4834409 2.9767311 3.4834409 2.9767311v7.4615484h-8.200086c-1.7709248-.3230537-2.3628387-1.6507957-2.4396129-1.8627527-.0698495-.1972043-.2206882-.7532903-.1135054-1.8823225.6464086-2.3830108 2.6750537-2.571785 2.6750537-2.571785h5.1504947v-.7710538c0-.856258-1.3524301-1.1808172-1.3524301-1.1808172h-5.6909248v-2.1879139zm.555785 8.3783225v-2.2342795h-4.0578925s-.551871.1547527-.8827527.8053763c-.1475269.3134194-.0273978.6668817.0153548.7421506.0355269.0945376.2182796.4648602.7861076.6867526zm-8.5025162-1.6320688s.367914 3.8004731-4.53840856 3.8101075h-8.36537635v-14.4651612h7.40073119s4.79763442-.1695054 5.00718282 3.7023225c0 0 .2417634 2.5353549-1.7007742 3.5418495 0 0 2.3026236.8806452 2.1966451 3.4108817zm-4.71303222 1.1287312c.88937634-.1406021 1.2027957-.6870538 1.2027957-.6870538.43535484-.5831828.23032258-1.3912688.23032258-1.3912688-.33750538-.8378924-1.28739785-1.0083011-1.28739785-1.0083011l-.1667957-.0325161h-4.98821505v3.1191398zm1.06068817-6.7076559c.35015054-.6015484.14210753-1.468043.14210753-1.468043-.34051613-.8327742-1.39217204-.7861075-1.39217204-.7861075h-4.81991398v3.0026236h4.83075269c.90021505-.1430107 1.2392258-.7484731 1.2392258-.7484731z"/><path d="m70.7000188 25.1979431v-.9284455h-10.132783v1.3926684h9.5918562c.3610306 0 .5409268-.154741.5409268-.4642229zm-10.2004504-4.7090663h9.7944459c.1798963.044964.2710822-.0656231.2710822-.3313562v-.530251h-10.0655281zm12.6331766 2.1230294v3.4480493c.1353348.8401378-.3379246 1.2160531-1.4193654 1.1273403h-13.6452996v-4.5753896zm-12.7004315-5.0408276h-2.3642335v-2.3219241h15.064665v2.3219241h-2.3646462v-.5966843h-10.3357853zm11.4836558 4.4433332h-13.9159693v-3.9130822h15.0646649v2.8521751c.0441489.7963892-.3379244 1.1496198-1.1486956 1.0609071zm-13.9159693-9.2852661h1.0806156v-.6631175h2.363821l.4064171.6631175h7.5659598l.3379245-.7291457h2.3638209v.7291457h1.0814409v1.8564861h-15.1999998zm32.5714281 2.7894291h-1.3276437c-.7078063.0449956-1.0617095-.1998454-1.0617095-.7304691l-.5306521-2.1901912h1.7918122l.2659341 1.0624636c.0429711.3092941.1763436.4422541.397685.3972585h.464574zm-8.363547 0v-1.3279782h.332823c.3089052.0445902.4860595-.1102595.5302467-.4641438l.2655287-1.1942076h1.792623l-.3984958 1.9911566c-.089996.7527642-.5091666 1.0839481-1.2619709.995173zm3.0533777.7961383v-4.3147131h2.1242299v4.3147131h3.0537831v9.4247539c0 .9724724-.4216028 1.4605328-1.2611602 1.4605328h-2.787849v-1.6595675h1.4598c.2659342.0441849.3984958-.1098541.3984958-.4641437v-.6639891h-3.7169969v2.5886657h-2.3236804v-10.6862521zm-8.7608266-2.3896311.330796-1.925082h2.1238246l-.1982345 1.1289436h2.5892092v1.8573859h-2.9204107l-.1333724.6656106c-.0891852.3542897-.4649794.4868443-1.1290039.3976638h-1.7253287v-1.7264528h.5971357c.1763434.0449957.3324176-.0879643.4653847-.3980691zm.5967301 4.9118168h-1.5927669v-1.9911565h5.8416321v1.9911565h-1.9912628v1.5918714h1.9912628v1.9258927h-1.9912628v2.4557057c0 .3976638.1755327.5756194.5302466.5302185h.8634752v1.6603781h-2.5231311c-.7969916 0-1.1723802-.4653599-1.1281931-1.3944582v-3.2518441h-1.725734v-1.9258927h1.725734zm7.4348046 3.9162386h3.7165915v-1.4605328h-3.7165915zm0-3.1201002h3.7165915v-1.5926821h-3.7165915z"/></g></g></svg>